<?xml version="1.0" encoding="UTF-8"?>
<svg version="1.1" xmlns="http://www.w3.org/2000/svg" width="512" height="512">
<path d="M0 0 C168.96 0 337.92 0 512 0 C512 168.96 512 337.92 512 512 C343.04 512 174.08 512 0 512 C0 343.04 0 174.08 0 0 Z " fill="#FEFEFE" transform="translate(0,0)"/>
<path d="M0 0 C0 89.1 0 178.2 0 270 C-2.97 270.66 -5.94 271.32 -9 272 C-10.67745682 272.63903117 -12.34561387 273.30341637 -14 274 C-18.57163953 275.49457446 -22.85973312 276.26263546 -27.61328125 276.72265625 C-32.49583514 277.2900234 -37.36358544 278.28097785 -42.10546875 279.57421875 C-49.82949614 281.61753556 -55.23218164 281 -64 281 C-64 242.39 -64 203.78 -64 164 C-98.32 164 -132.64 164 -168 164 C-167.94199219 171.68925781 -167.88398438 179.37851563 -167.82421875 187.30078125 C-167.79868002 192.16343247 -167.77461103 197.02600135 -167.75585938 201.88867188 C-167.72593528 209.61207181 -167.69048355 217.33517624 -167.62280273 225.05834961 C-167.56859441 231.28289725 -167.53860272 237.50712813 -167.52561378 243.73189354 C-167.51635389 246.11026181 -167.49827211 248.48861217 -167.47134972 250.86684608 C-167.43520931 254.19066868 -167.43004854 257.5131717 -167.43237305 260.8371582 C-167.41439667 261.8269014 -167.39642029 262.81664459 -167.37789917 263.83638 C-167.39682401 266.32663926 -167.44502027 268.57251687 -168 271 C-170.75939219 273.39546489 -173.37341264 274.32779955 -176.9140625 275.0625 C-177.66171875 275.2181543 -178.409375 275.37380859 -179.1796875 275.53417969 C-179.98664063 275.68790039 -180.79359375 275.84162109 -181.625 276 C-182.4809375 276.16661133 -183.336875 276.33322266 -184.21875 276.50488281 C-191.77390662 277.90408498 -199.36754961 278.88097428 -207 279.75 C-208.66216553 279.94142578 -208.66216553 279.94142578 -210.35791016 280.13671875 C-211.4360498 280.25144531 -212.51418945 280.36617188 -213.625 280.484375 C-214.56601563 280.58459961 -215.50703125 280.68482422 -216.4765625 280.78808594 C-221.64218937 281.09876804 -226.82503871 281 -232 281 C-232 192.23 -232 103.46 -232 12 C-214 7 -214 7 -209 7 C-209 6.34 -209 5.68 -209 5 C-208.14535156 4.86722656 -207.29070312 4.73445313 -206.41015625 4.59765625 C-205.30542969 4.42105469 -204.20070312 4.24445313 -203.0625 4.0625 C-201.96035156 3.88847656 -200.85820312 3.71445313 -199.72265625 3.53515625 C-197.09573071 3.28154864 -197.09573071 3.28154864 -196 2 C-187 1 -187 1 -168 1 C-168 36.31 -168 71.62 -168 108 C-133.68 108 -99.36 108 -64 108 C-64 75.33 -64 42.66 -64 9 C-41 4 -41 4 -35 4 C-35 3.34 -35 2.68 -35 2 C-31.79283629 1.65476852 -28.58415021 1.32620483 -25.375 1 C-24.49070312 0.90460938 -23.60640625 0.80921875 -22.6953125 0.7109375 C-15.01474575 -0.05711918 -7.83411897 0 0 0 Z " fill="#012049" transform="translate(371,68)"/>
<path d="M0 0 C76.56 0 153.12 0 232 0 C232 18.48 232 36.96 232 56 C155.44 56 78.88 56 0 56 C0 37.52 0 19.04 0 0 Z " fill="#06ADED" transform="translate(139,398)"/>
<path d="M0 0 C0 34.98 0 69.96 0 106 C33.33 106 66.66 106 101 106 C100.505 58.48 100.505 58.48 100 10 C100.99 10 101.98 10 103 10 C103 42.34 103 74.68 103 108 C68.68 108 34.36 108 -1 108 C-1 72.69 -1 37.38 -1 1 C-3.64 1 -6.28 1 -9 1 C-5.28732913 -1.33760758 -4.80554252 -0.9611085 0 0 Z " fill="#BBC6D8" transform="translate(204,68)"/>
<path d="M0 0 C0 89.1 0 178.2 0 270 C-0.99 269.67 -1.98 269.34 -3 269 C-2.34 269 -1.68 269 -1 269 C-1 180.56 -1 92.12 -1 1 C-2.98 1.33 -4.96 1.66 -7 2 C-8.36530214 2.10047678 -9.73307338 2.17374844 -11.1015625 2.2109375 C-19.21076022 2.50469725 -26.58121287 3.11539673 -34.4296875 5.3671875 C-38.05659199 6.26013359 -41.2850665 6.21432309 -45 6 C-41.5980513 3.90649311 -38.94727588 3.82057837 -35 4 C-35 3.34 -35 2.68 -35 2 C-31.79283629 1.65476852 -28.58415021 1.32620483 -25.375 1 C-24.49070312 0.90460938 -23.60640625 0.80921875 -22.6953125 0.7109375 C-15.01474575 -0.05711918 -7.83411897 0 0 0 Z " fill="#374966" transform="translate(371,68)"/>
<path d="M0 0 C1.32 0.66 2.64 1.32 4 2 C3.01 2.495 3.01 2.495 2 3 C1.67 91.77 1.34 180.54 1 272 C0.67 272 0.34 272 0 272 C-0.15028087 237.49324642 -0.29530957 202.98647519 -0.4332476 168.47967008 C-0.44951951 164.41019331 -0.46583512 160.34071672 -0.48217773 156.27124023 C-0.48543066 155.46104594 -0.48868358 154.65085165 -0.49203508 153.81610601 C-0.54488071 140.68002044 -0.60127006 127.54395233 -0.6589582 114.40788723 C-0.71802827 100.93927854 -0.77331525 87.4706582 -0.82505554 74.00201935 C-0.85712848 65.68434618 -0.89218821 57.36669643 -0.93101191 49.04905199 C-0.95731595 43.35320853 -0.97996109 37.65735803 -0.99967117 31.96148796 C-1.01116995 28.67028683 -1.02487756 25.37912032 -1.04183006 22.08794212 C-1.059914 18.52811482 -1.07191118 14.96831936 -1.08229065 11.40846252 C-1.08909444 10.35692838 -1.09589823 9.30539423 -1.10290819 8.22199541 C-1.10440054 7.27600416 -1.10589289 6.33001291 -1.10743046 5.35535526 C-1.11084794 4.53250131 -1.11426542 3.70964735 -1.11778647 2.86185843 C-1 1 -1 1 0 0 Z " fill="#E2EBFB" transform="translate(137,78)"/>
<path d="M0 0 C1.28093033 0.01055923 1.28093033 0.01055923 2.58773804 0.02133179 C3.5213768 0.0342778 4.45501556 0.04722382 5.41694641 0.06056213 C6.40249512 0.07016968 7.38804382 0.07977722 8.40345764 0.0896759 C11.66624522 0.12269901 14.92890029 0.16301888 18.19160461 0.2033844 C20.45175711 0.22768227 22.71191452 0.25152599 24.97207642 0.27493286 C30.92498884 0.33780688 36.87781424 0.40686421 42.8306427 0.47718811 C48.90339693 0.54784155 54.97621294 0.61267641 61.04902649 0.67799377 C72.96771417 0.8070489 84.88631804 0.94263316 96.80488586 1.08229065 C96.80488586 1.74229065 96.80488586 2.40229065 96.80488586 3.08229065 C62.15488586 3.08229065 27.50488586 3.08229065 -8.19511414 3.08229065 C-6.46541116 -0.37711529 -3.47114263 -0.03880781 0 0 Z " fill="#041539" transform="translate(210.1951141357422,227.91770935058594)"/>
<path d="M0 0 C1.32 0.33 2.64 0.66 4 1 C3.34 1 2.68 1 2 1 C1.97668862 11.17163892 1.95899007 21.34327134 1.94818783 31.51493168 C1.94299973 36.23953771 1.93597733 40.96412529 1.92456055 45.6887207 C1.91358532 50.25990921 1.90769261 54.83108012 1.90512276 59.40228081 C1.90329459 61.13431512 1.8997256 62.86634863 1.89426994 64.59837532 C1.86250258 75.11511689 2.13652719 85.51514786 3 96 C1.515 96.495 1.515 96.495 0 97 C0 64.99 0 32.98 0 0 Z " fill="#00193E" transform="translate(308,79)"/>
<path d="M0 0 C-3 2 -3 2 -8 2 C-8 33.68 -8 65.36 -8 98 C-8.33 98 -8.66 98 -9 98 C-9 65.66 -9 33.32 -9 0 C-3.375 -1.125 -3.375 -1.125 0 0 Z " fill="#394A63" transform="translate(316,77)"/>
<path d="M0 0 C0 0.33 0 0.66 0 1 C-4.48934272 1.72351362 -8.86450165 2.12598705 -13.40673828 2.29125977 C-20.73390962 2.5602835 -27.34678984 3.33504695 -34.4296875 5.3671875 C-38.05659199 6.26013359 -41.2850665 6.21432309 -45 6 C-41.5980513 3.90649311 -38.94727588 3.82057837 -35 4 C-35 3.34 -35 2.68 -35 2 C-23.30024254 0.74059296 -11.7812416 -0.35640731 0 0 Z " fill="#5E7089" transform="translate(371,68)"/>
<path d="M0 0 C-3 2 -3 2 -8 2 C-8 12.89 -8 23.78 -8 35 C-8.33 35 -8.66 35 -9 35 C-9 23.45 -9 11.9 -9 0 C-3.375 -1.125 -3.375 -1.125 0 0 Z " fill="#394963" transform="translate(316,77)"/>
<path d="M0 0 C0.78117187 0.23009766 0.78117187 0.23009766 1.578125 0.46484375 C4.63278515 1.13982511 7.63015971 1.34411118 10.75 1.5625 C11.92046875 1.64628906 13.0909375 1.73007813 14.296875 1.81640625 C15.18890625 1.87699219 16.0809375 1.93757813 17 2 C17 2.33 17 2.66 17 3 C6.605 3.495 6.605 3.495 -4 4 C-2.68 3.34 -1.36 2.68 0 2 C0 1.34 0 0.68 0 0 Z " fill="#D8E2EE" transform="translate(354,65)"/>
<path d="M0 0 C0 0.66 0 1.32 0 2 C0.99 2.33 1.98 2.66 3 3 C3 3.99 3 4.98 3 6 C2.01 6.33 1.02 6.66 0 7 C-0.66 6.67 -1.32 6.34 -2 6 C-1.67 4.68 -1.34 3.36 -1 2 C-3.97 2 -6.94 2 -10 2 C-10 1.67 -10 1.34 -10 1 C-2.25 0 -2.25 0 0 0 Z " fill="#D8DEE5" transform="translate(180,345)"/>
<path d="M0 0 C-4.27373998 2.13686999 -6.76923622 3.11896237 -11.625 3.0625 C-12.62789063 3.05347656 -13.63078125 3.04445313 -14.6640625 3.03515625 C-15.43492187 3.02355469 -16.20578125 3.01195312 -17 3 C-12.82235914 -1.17764086 -5.59802509 -0.09821097 0 0 Z " fill="#B4BFD2" transform="translate(339,346)"/>
<path d="M0 0 C-3.22791555 2.1519437 -4.28400809 2.20086443 -8 2 C-8.33 2.99 -8.66 3.98 -9 5 C-9 3.35 -9 1.7 -9 0 C-5.62182575 -0.84454356 -3.32534757 -1.10844919 0 0 Z " fill="#56667C" transform="translate(316,77)"/>
</svg>
